<svg xmlns="http://www.w3.org/2000/svg" width="59.799" height="55.812" viewBox="0 0 59.799 55.812">
  <path id="Icon_awesome-university" data-name="Icon awesome-university" d="M60.924,14.21V16.2a1,1,0,0,1-1,1h-2.99v1.495a1.5,1.5,0,0,1-1.495,1.495H6.607a1.5,1.5,0,0,1-1.495-1.495V17.2H2.122a1,1,0,0,1-1-1V14.21a1,1,0,0,1,.616-.921l28.9-10.963a1,1,0,0,1,.762,0l28.9,10.963A1,1,0,0,1,60.924,14.21Zm-2.99,37.872H4.115a2.99,2.99,0,0,0-2.99,2.99v1.993a1,1,0,0,0,1,1H59.927a1,1,0,0,0,1-1V55.072A2.99,2.99,0,0,0,57.934,52.082Zm-46.842-29.9V46.1H6.607A1.5,1.5,0,0,0,5.112,47.6v2.492H56.937V47.6A1.5,1.5,0,0,0,55.442,46.1H50.957V22.183H42.984V46.1H35.011V22.183H27.038V46.1H19.065V22.183Z" transform="translate(-1.125 -2.25)" fill="#0db14b"/>
</svg>
