<svg xmlns="http://www.w3.org/2000/svg" width="53.883" height="53.883" viewBox="0 0 53.883 53.883">
  <path id="Icon_awesome-medal" data-name="Icon awesome-medal" d="M23.548,13.76,16.272,1.635A3.367,3.367,0,0,0,13.384,0H1.687A1.684,1.684,0,0,0,.307,2.65l11.71,16.729A21.78,21.78,0,0,1,23.548,13.76ZM52.2,0H40.5a3.367,3.367,0,0,0-2.888,1.635L30.336,13.76a21.787,21.787,0,0,1,11.53,5.618L53.576,2.65A1.684,1.684,0,0,0,52.2,0ZM26.942,16.838A18.522,18.522,0,1,0,45.464,35.361,18.523,18.523,0,0,0,26.942,16.838Zm9.737,16.55-3.992,3.89.944,5.5a1.208,1.208,0,0,1-1.752,1.272l-4.937-2.594-4.936,2.594a1.208,1.208,0,0,1-1.752-1.272l.944-5.5-3.992-3.89a1.209,1.209,0,0,1,.668-2.062l5.518-.8,2.466-5a1.211,1.211,0,0,1,2.169,0l2.466,5,5.518.8a1.209,1.209,0,0,1,.668,2.062Z" transform="translate(0)" fill="#0db14b"/>
</svg>
