<svg id="Grupo_12" data-name="Grupo 12" xmlns="http://www.w3.org/2000/svg" xmlns:xlink="http://www.w3.org/1999/xlink" width="132.216" height="72.042" viewBox="0 0 132.216 72.042">
  <defs>
    <clipPath id="clip-path">
      <rect id="Rectángulo_21" data-name="Rectángulo 21" width="132.216" height="72.042" fill="none"/>
    </clipPath>
  </defs>
  <rect id="Rectángulo_17" data-name="Rectángulo 17" width="48.028" height="48.028" fill="#13a438"/>
  <rect id="Rectángulo_18" data-name="Rectángulo 18" width="48.028" height="24.013" transform="translate(0 48.028)" fill="#3c3c3b"/>
  <path id="Trazado_29" data-name="Trazado 29" d="M77.964,32.9l5.758,9.116H72.207Z" transform="translate(-45.794 -20.863)" fill="#fff"/>
  <path id="Trazado_30" data-name="Trazado 30" d="M27.607,40.574l5.279,1.919V35.3l-5.279-2.4Z" transform="translate(-17.508 -20.864)" fill="#fff"/>
  <path id="Trazado_31" data-name="Trazado 31" d="M44.662,42.493l5.277-1.919V32.9l-5.277,2.4Z" transform="translate(-28.325 -20.863)" fill="#fff"/>
  <path id="Trazado_32" data-name="Trazado 32" d="M83.721,75.734l-2.877,4.8H75.085l-2.878-4.8,2.878-4.8h5.758Z" transform="translate(-45.794 -44.988)" fill="#fff"/>
  <path id="Trazado_33" data-name="Trazado 33" d="M32.762,72.249,34.2,73.7l1.44-1.454h3.838v4.8l-5.278,4.8-5.277-4.8v-4.8Z" transform="translate(-18.343 -45.82)" fill="#fff"/>
  <g id="Grupo_11" data-name="Grupo 11">
    <g id="Grupo_10" data-name="Grupo 10" clip-path="url(#clip-path)">
      <path id="Trazado_34" data-name="Trazado 34" d="M46.463,166.711a.151.151,0,0,1-.16-.16v-7.4a.15.15,0,0,1,.16-.157h1.912a.151.151,0,0,1,.158.157v7.4a.151.151,0,0,1-.158.16Z" transform="translate(-29.366 -100.838)" fill="#fff"/>
      <path id="Trazado_35" data-name="Trazado 35" d="M25.721,164.4a7.25,7.25,0,0,1,0-3.694,3.22,3.22,0,0,1,3.331-2.183,3.406,3.406,0,0,1,2.915,1.449.155.155,0,0,1-.031.221l-1.386.913a.159.159,0,0,1-.236-.036,1.374,1.374,0,0,0-1.229-.667,1.147,1.147,0,0,0-1.2.826,6.189,6.189,0,0,0,0,2.649,1.147,1.147,0,0,0,1.2.826,1.374,1.374,0,0,0,1.229-.668.157.157,0,0,1,.236-.033l1.386.91a.158.158,0,0,1,.031.224,3.419,3.419,0,0,1-2.915,1.448,3.218,3.218,0,0,1-3.331-2.186" transform="translate(-16.161 -100.536)" fill="#fff"/>
      <path id="Trazado_36" data-name="Trazado 36" d="M56.96,166.711a.151.151,0,0,1-.157-.16v-7.4A.15.15,0,0,1,56.96,159h1.912a.153.153,0,0,1,.165.157v7.4a.153.153,0,0,1-.165.16Z" transform="translate(-36.025 -100.838)" fill="#fff"/>
      <path id="Trazado_37" data-name="Trazado 37" d="M65.916,165.386a.149.149,0,0,1,0-.22L66.953,164a.151.151,0,0,1,.221,0,4.029,4.029,0,0,0,2.36.844c.81,0,1.191-.3,1.191-.73,0-.366-.2-.593-1.1-.672l-.864-.1c-1.621-.155-2.516-.972-2.516-2.357,0-1.514,1.161-2.469,3.169-2.469a5.228,5.228,0,0,1,3.126.955.169.169,0,0,1,.015.239l-.89,1.1a.161.161,0,0,1-.226.033,4.069,4.069,0,0,0-2.089-.621c-.651,0-.968.252-.968.637,0,.35.189.557,1.064.634l.845.1c1.815.177,2.567,1.049,2.567,2.342-.018,1.578-1.24,2.646-3.445,2.646a5.232,5.232,0,0,1-3.5-1.2" transform="translate(-41.774 -100.535)" fill="#fff"/>
      <path id="Trazado_38" data-name="Trazado 38" d="M91.984,163.842v-.524c0-.064-.031-.094-.1-.094H90.8c-.943,0-1.368.264-1.368.876,0,.545.381.812,1.114.812.957,0,1.434-.352,1.434-1.07m.189,2.566a.152.152,0,0,1-.158-.16v-.515H92a2.5,2.5,0,0,1-2.116.849,2.294,2.294,0,0,1-2.566-2.357c0-1.706,1.286-2.484,3.2-2.484h1.368c.065,0,.1-.034.1-.1v-.287c0-.715-.353-1.052-1.579-1.052a2.87,2.87,0,0,0-1.72.5.126.126,0,0,1-.207-.037l-.718-1.256c-.043-.094-.031-.175.051-.221a4.848,4.848,0,0,1,2.861-.766c2.519,0,3.429.859,3.429,2.787v4.94a.15.15,0,0,1-.159.16Z" transform="translate(-55.377 -100.535)" fill="#fff"/>
      <path id="Trazado_39" data-name="Trazado 39" d="M46.931,150.593a.216.216,0,0,1-.3,0l-1.266-1.273a.213.213,0,0,1,0-.3l1.266-1.268a.214.214,0,0,1,.3,0l1.27,1.268a.208.208,0,0,1,0,.3Z" transform="translate(-28.729 -93.664)" fill="#fff"/>
      <path id="Trazado_40" data-name="Trazado 40" d="M57.434,150.593a.215.215,0,0,1-.3,0l-1.265-1.273a.208.208,0,0,1,0-.3l1.265-1.268a.213.213,0,0,1,.3,0l1.273,1.268a.216.216,0,0,1,0,.3Z" transform="translate(-35.39 -93.664)" fill="#fff"/>
      <rect id="Rectángulo_19" data-name="Rectángulo 19" width="1.412" height="7.52" transform="translate(67.476 18.962)" fill="#6e7c7c"/>
      <path id="Trazado_41" data-name="Trazado 41" d="M196.7,62.275V58.66c0-.817-.139-1.1-.8-1.1a4.278,4.278,0,0,0-1.492.382v4.334h-1.328v-5.7h1.276v.459a3.755,3.755,0,0,1,1.867-.6c1.607,0,1.822.923,1.822,2.224v3.615Z" transform="translate(-122.455 -35.792)" fill="#6e7c7c"/>
      <path id="Trazado_42" data-name="Trazado 42" d="M212.441,62.412a8.584,8.584,0,0,1-1.942-.221V61.24c.295.017,1.15.132,1.881.132.829,0,1.056-.192,1.056-.6s-.177-.493-1.013-.831l-.436-.17c-1.071-.425-1.566-.909-1.566-1.791,0-1.144.758-1.546,2.274-1.546a7.763,7.763,0,0,1,1.778.22v.932c-.638-.059-1.266-.1-1.757-.1-.692,0-.981.063-.981.469,0,.363.2.463.9.736l.456.183c1.226.5,1.648.878,1.661,1.819,0,1.076-.719,1.72-2.309,1.72" transform="translate(-133.451 -35.792)" fill="#6e7c7c"/>
      <path id="Trazado_43" data-name="Trazado 43" d="M227.127,60.161c-1.126,0-1.574-.446-1.574-1.638V55.386l-1.059-.089v-.986h1.059V52.869h1.334v1.443h1.387v1.075h-1.387V58.5c0,.528.045.625.53.625a8.511,8.511,0,0,0,.857-.041V60a4.87,4.87,0,0,1-1.148.162" transform="translate(-142.376 -33.53)" fill="#6e7c7c"/>
      <path id="Trazado_44" data-name="Trazado 44" d="M238.323,53.064h1.345v5.7h-1.345Zm-.008-2.162h1.376v1.286h-1.376Z" transform="translate(-151.141 -32.282)" fill="#6e7c7c"/>
      <path id="Trazado_45" data-name="Trazado 45" d="M247.966,60.161c-1.121,0-1.566-.446-1.566-1.638V55.386l-1.059-.089v-.986H246.4V52.869h1.334v1.443h1.389v1.075h-1.389V58.5c0,.528.039.625.527.625a8.552,8.552,0,0,0,.861-.041V60a4.888,4.888,0,0,1-1.157.162" transform="translate(-155.598 -33.53)" fill="#6e7c7c"/>
      <path id="Trazado_46" data-name="Trazado 46" d="M262.7,62.514v-.459a4.218,4.218,0,0,1-1.977.607c-1.484,0-1.712-1.051-1.712-2.225V56.813h1.329v3.624c0,.809.151,1.1.822,1.1a4.594,4.594,0,0,0,1.484-.384V56.813h1.332v5.7Z" transform="translate(-164.267 -36.031)" fill="#6e7c7c"/>
      <path id="Trazado_47" data-name="Trazado 47" d="M278.425,60.161c-1.122,0-1.566-.446-1.566-1.638V55.386l-1.067-.089v-.986h1.067V52.869h1.33v1.443h1.389v1.075h-1.389V58.5c0,.528.045.625.529.625a8.542,8.542,0,0,0,.86-.041V60a4.85,4.85,0,0,1-1.153.162" transform="translate(-174.91 -33.53)" fill="#6e7c7c"/>
      <path id="Trazado_48" data-name="Trazado 48" d="M292.334,59.074c0-1.091-.371-1.494-1.24-1.494s-1.248.4-1.248,1.494v.7c0,1.092.376,1.508,1.248,1.508s1.24-.416,1.24-1.508Zm-1.24,3.349c-1.663,0-2.569-.852-2.569-2.651v-.7a2.568,2.568,0,1,1,5.134,0v.7c0,1.8-.908,2.651-2.565,2.651" transform="translate(-182.985 -35.792)" fill="#6e7c7c"/>
      <path id="Trazado_49" data-name="Trazado 49" d="M187.335,87.311a7.681,7.681,0,0,0-1.063-.1c-.805,0-1.254.231-1.254,1.521v.8c0,1.025.335,1.418,1.164,1.418a2.951,2.951,0,0,0,1.154-.252Zm.07,4.623V91.64a3.021,3.021,0,0,1-1.6.445c-1.336,0-2.124-.81-2.124-2.55v-.8c0-2.011,1-2.635,2.456-2.635a6.09,6.09,0,0,1,1.186.112V84.07h1.336v7.864Z" transform="translate(-116.494 -53.318)" fill="#6e7c7c"/>
      <path id="Trazado_50" data-name="Trazado 50" d="M205.072,92.057c0-.657-.128-1.374-1.234-1.374-1.071,0-1.235.73-1.235,1.374v.094h2.469Zm-2.479.959v.108c0,.83.12,1.365,1.518,1.365.6,0,1.3-.061,2.05-.134v1a9.288,9.288,0,0,1-2.108.242c-2.055,0-2.783-.791-2.783-2.791v-.355c0-1.912.87-2.843,2.568-2.843,1.9,0,2.567,1.235,2.567,2.96v.444Z" transform="translate(-127.647 -56.832)" fill="#6e7c7c"/>
      <path id="Trazado_51" data-name="Trazado 51" d="M227.837,92.428c-1.932,0-3.206-.729-3.206-3.421v-1c0-2.688,1.274-3.411,3.206-3.411a10.009,10.009,0,0,1,1.889.209v1.12c-.492-.045-1.212-.093-1.8-.093-1.262,0-1.879.446-1.879,2.174v1c0,1.735.618,2.186,1.879,2.186.588,0,1.307-.052,1.8-.094v1.136a10.8,10.8,0,0,1-1.889.192" transform="translate(-142.463 -53.651)" fill="#6e7c7c"/>
      <path id="Trazado_52" data-name="Trazado 52" d="M242.084,86.235h1.347v5.7h-1.347Zm-.007-2.164h1.372v1.285h-1.372Z" transform="translate(-153.527 -53.319)" fill="#6e7c7c"/>
      <path id="Trazado_53" data-name="Trazado 53" d="M253.671,92.057c0-.657-.135-1.374-1.237-1.374-1.068,0-1.23.73-1.23,1.374v.094h2.467Zm-2.481.959v.108c0,.83.12,1.365,1.518,1.365.6,0,1.3-.061,2.054-.134v1a9.361,9.361,0,0,1-2.116.242c-2.051,0-2.781-.791-2.781-2.791v-.355c0-1.912.868-2.843,2.569-2.843,1.9,0,2.569,1.235,2.569,2.96v.444Z" transform="translate(-158.466 -56.832)" fill="#6e7c7c"/>
      <path id="Trazado_54" data-name="Trazado 54" d="M271.459,95.446V91.835c0-.822-.143-1.1-.8-1.1a4.408,4.408,0,0,0-1.5.384v4.33h-1.324v-5.7h1.276V90.2a3.8,3.8,0,0,1,1.869-.6c1.606,0,1.824.932,1.824,2.227v3.611Z" transform="translate(-169.864 -56.83)" fill="#6e7c7c"/>
      <path id="Trazado_55" data-name="Trazado 55" d="M287.715,95.6c-1.64,0-2.4-.934-2.4-2.641v-.713c0-1.748.759-2.635,2.4-2.635a6.359,6.359,0,0,1,1.755.212v1.013c-.714-.063-1.213-.089-1.529-.089-.826,0-1.289.259-1.289,1.5v.713c0,1.224.462,1.509,1.289,1.509.316,0,.815-.033,1.529-.092v1.01a6.919,6.919,0,0,1-1.755.214" transform="translate(-180.95 -56.831)" fill="#6e7c7c"/>
      <path id="Trazado_56" data-name="Trazado 56" d="M300.442,86.235h1.349v5.7h-1.349Zm-.008-2.164h1.375v1.285h-1.375Z" transform="translate(-190.538 -53.319)" fill="#6e7c7c"/>
      <path id="Trazado_57" data-name="Trazado 57" d="M311.494,92.858h-.706c-.985,0-1.4.109-1.4.857v.243c0,.527.328.672.8.672a2.86,2.86,0,0,0,1.3-.351Zm.072,2.588V95.07a3.242,3.242,0,0,1-1.8.528A1.47,1.47,0,0,1,308.1,93.97v-.214c0-1.513,1.092-1.722,2.69-1.722h.676v-.349c0-.812-.175-.974-1.187-.974a16.05,16.05,0,0,0-1.791.112v-.9a6.316,6.316,0,0,1,2.014-.317c1.823,0,2.3.619,2.3,2.078v3.761Z" transform="translate(-195.398 -56.83)" fill="#6e7c7c"/>
      <path id="Trazado_58" data-name="Trazado 58" d="M326.618,95.589a8.435,8.435,0,0,1-1.939-.224v-.953c.293.023,1.153.134,1.883.134.827,0,1.049-.192,1.049-.593s-.172-.5-1.011-.83l-.432-.172c-1.075-.427-1.571-.914-1.571-1.792,0-1.143.761-1.548,2.276-1.548a7.739,7.739,0,0,1,1.782.221v.932c-.64-.059-1.265-.1-1.765-.1-.685,0-.976.061-.976.465,0,.364.2.462.895.737l.458.187c1.224.492,1.655.876,1.66,1.817,0,1.074-.723,1.721-2.309,1.721" transform="translate(-205.862 -56.832)" fill="#6e7c7c"/>
      <path id="Trazado_59" data-name="Trazado 59" d="M186.712,119.375v6.339h-1.421v-6.339h-2.238V118.2h5.9v1.173Z" transform="translate(-116.093 -74.965)" fill="#6e7c7c"/>
      <path id="Trazado_60" data-name="Trazado 60" d="M203.381,125.233c0-.658-.132-1.372-1.234-1.372-1.071,0-1.236.724-1.236,1.372v.093h2.47Zm-2.476.961v.1c0,.829.12,1.364,1.514,1.364.6,0,1.305-.061,2.052-.133v1.005a9.091,9.091,0,0,1-2.111.24c-2.058,0-2.784-.788-2.784-2.792v-.351c0-1.909.871-2.844,2.569-2.844,1.9,0,2.573,1.236,2.573,2.965v.443Z" transform="translate(-126.573 -77.871)" fill="#6e7c7c"/>
      <path id="Trazado_61" data-name="Trazado 61" d="M219.338,128.773c-1.637,0-2.4-.932-2.4-2.639v-.72c0-1.739.759-2.629,2.4-2.629A6.271,6.271,0,0,1,221.1,123v1.011c-.714-.064-1.209-.093-1.522-.093-.833,0-1.3.264-1.3,1.5v.72c0,1.225.468,1.508,1.3,1.508.313,0,.808-.03,1.522-.093v1.011a6.747,6.747,0,0,1-1.759.214" transform="translate(-137.586 -77.872)" fill="#6e7c7c"/>
      <path id="Trazado_62" data-name="Trazado 62" d="M235.6,128.621v-3.614c0-.813-.142-1.1-.8-1.1a4.335,4.335,0,0,0-1.494.388v4.326H231.98v-5.693h1.275v.452a3.855,3.855,0,0,1,1.87-.594c1.607,0,1.825.935,1.825,2.22v3.614Z" transform="translate(-147.124 -77.872)" fill="#6e7c7c"/>
      <path id="Trazado_63" data-name="Trazado 63" d="M253.263,125.427c0-1.092-.371-1.5-1.24-1.5s-1.244.4-1.244,1.5v.7c0,1.09.371,1.509,1.244,1.509s1.24-.419,1.24-1.509Zm-1.24,3.347a2.315,2.315,0,0,1-2.572-2.648v-.7a2.569,2.569,0,1,1,5.137,0v.7c0,1.8-.906,2.648-2.565,2.648" transform="translate(-158.204 -77.872)" fill="#6e7c7c"/>
      <rect id="Rectángulo_20" data-name="Rectángulo 20" width="1.333" height="7.854" transform="translate(97.885 42.894)" fill="#6e7c7c"/>
      <path id="Trazado_64" data-name="Trazado 64" d="M278.283,118.842h-1.275l1.324-1.493h1.558Zm.86,3.136c0-1.092-.376-1.5-1.244-1.5s-1.245.4-1.245,1.5v.7c0,1.09.373,1.509,1.245,1.509s1.244-.419,1.244-1.509Zm-1.244,3.347a2.316,2.316,0,0,1-2.573-2.648v-.7a2.571,2.571,0,1,1,5.141,0v.7a2.313,2.313,0,0,1-2.568,2.648" transform="translate(-174.614 -74.424)" fill="#6e7c7c"/>
      <path id="Trazado_65" data-name="Trazado 65" d="M296.424,123.96a7.066,7.066,0,0,0-.93-.061c-1.1,0-1.374.488-1.374,1.535v.629c0,1.141.361,1.517,1.349,1.517a5.771,5.771,0,0,0,.954-.073Zm-1.09,6.878a13.354,13.354,0,0,1-2.227-.223V129.7c.637.045,1.444.1,2.142.1,1.052,0,1.175-.316,1.175-.962v-.224a7.636,7.636,0,0,1-1.021.082c-1.67,0-2.619-.729-2.619-2.63v-.637c0-1.8.818-2.641,2.789-2.641a20.381,20.381,0,0,1,2.186.142v5.908c0,1.235-.485,2-2.426,2" transform="translate(-185.686 -77.871)" fill="#6e7c7c"/>
      <path id="Trazado_66" data-name="Trazado 66" d="M311.04,119.426h1.342v5.692H311.04Zm-.008-2.162h1.374v1.285h-1.374Z" transform="translate(-197.259 -74.37)" fill="#6e7c7c"/>
      <path id="Trazado_67" data-name="Trazado 67" d="M321.219,128.773c-1.637,0-2.4-.932-2.4-2.639v-.72c0-1.739.761-2.629,2.4-2.629a6.291,6.291,0,0,1,1.759.215v1.011c-.717-.064-1.214-.093-1.528-.093-.827,0-1.294.264-1.294,1.5v.72c0,1.225.467,1.508,1.294,1.508.314,0,.811-.03,1.528-.093v1.011a6.769,6.769,0,0,1-1.759.214" transform="translate(-202.198 -77.872)" fill="#6e7c7c"/>
      <path id="Trazado_68" data-name="Trazado 68" d="M336.518,126.032h-.707c-.983,0-1.4.111-1.4.862v.241c0,.526.327.67.8.67a2.9,2.9,0,0,0,1.3-.346Zm.071,2.589v-.372a3.284,3.284,0,0,1-1.805.525,1.469,1.469,0,0,1-1.663-1.627v-.216c0-1.515,1.091-1.716,2.69-1.716h.676v-.357c0-.809-.169-.968-1.184-.968a16.053,16.053,0,0,0-1.793.112v-.9a6.428,6.428,0,0,1,2.015-.316c1.818,0,2.3.623,2.3,2.071v3.763Z" transform="translate(-211.268 -77.872)" fill="#6e7c7c"/>
      <path id="Trazado_69" data-name="Trazado 69" d="M351.641,128.762a8.848,8.848,0,0,1-1.94-.221v-.949c.293.019,1.157.134,1.881.134.832,0,1.051-.2,1.051-.6s-.166-.495-1.01-.829l-.435-.172c-1.071-.425-1.566-.912-1.566-1.791,0-1.147.76-1.549,2.276-1.549a7.576,7.576,0,0,1,1.779.225v.931c-.636-.063-1.262-.1-1.76-.1-.687,0-.979.06-.979.463,0,.367.206.464.9.737l.454.188c1.224.493,1.65.874,1.659,1.818,0,1.071-.717,1.717-2.308,1.717" transform="translate(-221.733 -77.872)" fill="#6e7c7c"/>
    </g>
  </g>
</svg>
